<svg id="Layer_1" data-name="Layer 1" xmlns="http://www.w3.org/2000/svg" viewBox="0 0 684.5962 212.8652">
  <g>
    <g id="type">
      <path id="type_CompoundPathItem_" data-name="type &lt;CompoundPathItem&gt;" d="M242.0708,72.2314H212.69V4.1h28.1114c14.2509,0,22.1582,7.418,22.1582,17.57,0,8.2969-4.9785,13.47-11.6162,15.6172,7.7109,1.3662,13.1777,8.4922,13.1777,16.4961C264.521,64.6182,256.2241,72.2314,242.0708,72.2314ZM238.8491,15.13H226.355v17.081h12.4941c6.4424,0,10.1514-2.9277,10.1514-8.4912C249.0005,18.2529,245.2915,15.13,238.8491,15.13Zm.9766,27.623H226.355V61.1045h13.7637c6.6367,0,10.5419-3.2217,10.5419-8.98C250.6606,46.2676,246.4634,42.7529,239.8257,42.7529Z" style="fill: #1c1c1c"/>
      <path id="type_CompoundPathItem_2" data-name="type &lt;CompoundPathItem&gt;" d="M289.1128,72.2314h-13.665V18.1553h13.665V26.55a18.7555,18.7555,0,0,1,16.5928-9.1748V31.7236h-3.61c-8.1015,0-12.9824,3.1231-12.9824,13.5674Z" style="fill: #1c1c1c"/>
      <path id="type_CompoundPathItem_3" data-name="type &lt;CompoundPathItem&gt;" d="M336.0591,17.2773c8.6865,0,14.6416,4.1,17.8623,8.59V18.1553h13.7627V72.2314H353.9214V64.3252c-3.2207,4.6855-9.37,8.7852-17.96,8.7852-13.666,0-24.5986-11.2256-24.5986-28.1124S322.2954,17.2773,336.0591,17.2773Zm3.5137,12.0059c-7.3213,0-14.251,5.4658-14.251,15.7148s6.93,16.1065,14.251,16.1065c7.5156,0,14.3486-5.6621,14.3486-15.9111S347.0884,29.2832,339.5728,29.2832Z" style="fill: #1c1c1c"/>
      <path id="type_CompoundPathItem_4" data-name="type &lt;CompoundPathItem&gt;" d="M418.9243,42.3633c0-8.6875-4.7832-13.3731-12.0068-13.3731-7.417,0-12.2,4.6856-12.2,13.3731V72.2314H381.0522V18.1553h13.6651v6.7353c3.5146-4.5879,9.37-7.5156,16.3-7.5156,12.5918,0,21.5723,8.1992,21.5723,23.1328V72.2314H418.9243Z" style="fill: #1c1c1c"/>
      <path id="type_CompoundPathItem_5" data-name="type &lt;CompoundPathItem&gt;" d="M466.8462,17.2773c7.125,0,13.958,3.3184,17.667,8.3946V0h13.86V72.2314h-13.86V64.2275c-3.2207,4.9786-9.2725,8.8829-17.7647,8.8829-13.7636,0-24.6963-11.2256-24.6963-28.1124S452.9849,17.2773,466.8462,17.2773Zm3.416,12.0059c-7.3213,0-14.251,5.4658-14.251,15.7148s6.93,16.1065,14.251,16.1065c7.5156,0,14.3486-5.6621,14.3486-15.9111S477.7778,29.2832,470.2622,29.2832Z" style="fill: #1c1c1c"/>
      <path id="type_CompoundPathItem_6" data-name="type &lt;CompoundPathItem&gt;" d="M535.7524,73.11c-15.6171,0-27.4287-10.9327-27.4287-27.917,0-17.0821,12.2022-27.9161,27.8194-27.9161s27.8193,10.834,27.8193,27.9161C563.9624,62.1777,551.4683,73.11,535.7524,73.11Zm0-11.9083c7.2237,0,14.1534-5.2714,14.1534-16.0087,0-10.835-6.7344-16.0079-13.958-16.0079s-13.7627,5.1729-13.7627,16.0079C522.1851,55.9307,528.4321,61.2021,535.7524,61.2021Z" style="fill: #1c1c1c"/>
      <path id="type_CompoundPathItem_7" data-name="type &lt;CompoundPathItem&gt;" d="M611.8823,42.3633c0-8.6875-4.7832-13.3731-12.0068-13.3731-7.417,0-12.2,4.6856-12.2,13.3731V72.2314H574.01V18.1553h13.665v6.7353c3.5146-4.5879,9.3711-7.5156,16.3-7.5156,12.5918,0,21.5723,8.1992,21.5723,23.1328V72.2314H611.8823Z" style="fill: #1c1c1c"/>
      <path id="type_CompoundPathItem_8" data-name="type &lt;CompoundPathItem&gt;" d="M226.355,89.1v57.2969h22.45v10.8349H212.69V89.1Z" style="fill: #1c1c1c"/>
      <path id="type_CompoundPathItem_9" data-name="type &lt;CompoundPathItem&gt;" d="M278.6714,102.2773c8.6865,0,14.6416,4.1,17.8623,8.59v-7.7119h13.7617v54.0761H296.5337v-7.9062c-3.2207,4.6855-9.37,8.7852-17.96,8.7852-13.666,0-24.5986-11.2256-24.5986-28.1124S264.9077,102.2773,278.6714,102.2773Zm3.5137,12.0059c-7.3213,0-14.251,5.4658-14.251,15.7148s6.93,16.1065,14.251,16.1065c7.5156,0,14.3486-5.6621,14.3486-15.9111S289.7007,114.2832,282.1851,114.2832Z" style="fill: #1c1c1c"/>
      <path id="type_CompoundPathItem_10" data-name="type &lt;CompoundPathItem&gt;" d="M361.5366,127.3633c0-8.6875-4.7832-13.3731-12.0068-13.3731-7.418,0-12.2012,4.6856-12.2012,13.3731v29.8681h-13.665V103.1553h13.665v6.7353c3.5147-4.5879,9.3711-7.5156,16.3008-7.5156,12.5918,0,21.5723,8.1992,21.5723,23.1328v31.7236H361.5366Z" style="fill: #1c1c1c"/>
      <path id="type_CompoundPathItem_11" data-name="type &lt;CompoundPathItem&gt;" d="M409.4575,102.2773c7.125,0,13.958,3.3184,17.667,8.3946V85h13.86v72.2314h-13.86v-8.0039c-3.2207,4.9786-9.2724,8.8829-17.7646,8.8829-13.7627,0-24.6953-11.2256-24.6953-28.1124S395.5972,102.2773,409.4575,102.2773Zm3.416,12.0059c-7.3213,0-14.25,5.4658-14.25,15.7148s6.9287,16.1065,14.25,16.1065c7.5157,0,14.3487-5.6621,14.3487-15.9111S420.3892,114.2832,412.8735,114.2832Z" style="fill: #1c1c1c"/>
      <path id="type_CompoundPathItem_12" data-name="type &lt;CompoundPathItem&gt;" d="M475.5347,102.2773c8.4922,0,14.6416,3.9043,17.8623,8.59v-7.7119h13.7617v54.4668c0,14.6416-8.9785,26.2568-26.7441,26.2568-15.2266,0-25.8663-7.6133-27.2334-20.01H466.75c1.3662,4.8809,6.4424,8.1016,13.2744,8.1016,7.5166,0,13.3731-4.2949,13.3731-14.3486v-8.3946a21.3262,21.3262,0,0,1-17.8623,8.8829c-13.7637,0-24.6963-11.2256-24.6963-28.1124S461.771,102.2773,475.5347,102.2773Zm3.5136,12.0059c-7.3212,0-14.2509,5.4658-14.2509,15.7148s6.93,16.1065,14.2509,16.1065c7.5157,0,14.3487-5.6621,14.3487-15.9111S486.564,114.2832,479.0483,114.2832Z" style="fill: #1c1c1c"/>
      <path id="type_CompoundPathItem_13" data-name="type &lt;CompoundPathItem&gt;" d="M534.1919,157.2314h-13.665V103.1553h13.665V111.55a18.7559,18.7559,0,0,1,16.5937-9.1748v14.3486h-3.6113c-8.1015,0-12.9824,3.1231-12.9824,13.5674Z" style="fill: #1c1c1c"/>
      <path id="type_CompoundPathItem_14" data-name="type &lt;CompoundPathItem&gt;" d="M581.1392,102.2773c8.6865,0,14.6416,4.1,17.8613,8.59v-7.7119h13.7627v54.0761H599.0005v-7.9062c-3.22,4.6855-9.3692,8.7852-17.959,8.7852-13.666,0-24.5986-11.2256-24.5986-28.1124S567.3755,102.2773,581.1392,102.2773Zm3.5136,12.0059c-7.3213,0-14.2509,5.4658-14.2509,15.7148s6.93,16.1065,14.2509,16.1065c7.5157,0,14.3477-5.6621,14.3477-15.9111S592.1685,114.2832,584.6528,114.2832Z" style="fill: #1c1c1c"/>
      <path id="type_CompoundPathItem_15" data-name="type &lt;CompoundPathItem&gt;" d="M627.5952,114.3809h-6.1494V103.1553h6.1494v-2.7324c0-13.2754,7.5156-19.4249,22.7432-19.0342V92.9062c-6.6377-.1953-8.8828,1.9522-8.8828,8.004v2.2451h9.4687v11.2256h-9.4687v42.8505h-13.86Z" style="fill: #1c1c1c"/>
      <path id="type_CompoundPathItem_16" data-name="type &lt;CompoundPathItem&gt;" d="M661.2671,114.3809h-6.1494V103.1553h6.1494v-2.7324c0-13.2754,7.5156-19.4249,22.7432-19.0342V92.9062c-6.6377-.1953-8.8829,1.9522-8.8829,8.004v2.2451h9.4688v11.2256h-9.4688v42.8505h-13.86Z" style="fill: #1c1c1c"/>
    </g>
    <g id="tagline">
      <path id="tagline_CompoundPathItem_" data-name="tagline &lt;CompoundPathItem&gt;" d="M212.2915,193.1533h11.0313v2.0723h-8.4834v6.58h6.8877v2.0722h-6.8877v8.792h-2.5479Z" style="fill: #1c1c1c"/>
      <path id="tagline_CompoundPathItem_2" data-name="tagline &lt;CompoundPathItem&gt;" d="M232.9556,193.1533h2.5488V205.502c0,3.5839,1.9316,5.124,4.8154,5.124s4.7881-1.54,4.7881-5.124V193.1533h2.5479v12.32c0,5.0684-3.3321,7.3916-7.3643,7.3916s-7.3359-2.3232-7.3359-7.3916Z" style="fill: #1c1c1c"/>
      <path id="tagline_CompoundPathItem_3" data-name="tagline &lt;CompoundPathItem&gt;" d="M261.0669,193.1533v17.4444h6.832V212.67h-9.38V193.1533Z" style="fill: #1c1c1c"/>
      <path id="tagline_CompoundPathItem_4" data-name="tagline &lt;CompoundPathItem&gt;" d="M279.771,193.1533v17.4444h6.832V212.67h-9.38V193.1533Z" style="fill: #1c1c1c"/>
      <path id="tagline_CompoundPathItem_5" data-name="tagline &lt;CompoundPathItem&gt;" d="M316.1978,212.8652c-3.92,0-6.6915-2.1836-6.7481-5.4033h2.7158c.169,1.624,1.3164,3.2481,4.0323,3.2481,2.4638,0,3.92-1.4,3.92-3.2481,0-5.2646-10.5557-1.9043-10.5557-9.1562,0-3.22,2.6035-5.4043,6.4678-5.4043,3.7246,0,6.16,2.0439,6.4678,5.0127h-2.8c-.168-1.3164-1.3995-2.8008-3.7793-2.8282-2.1006-.0566-3.753,1.0362-3.753,3.1358,0,5.04,10.5283,1.9043,10.5283,9.1279C322.6938,210.1221,320.4263,212.8652,316.1978,212.8652Z" style="fill: #1c1c1c"/>
      <path id="tagline_CompoundPathItem_6" data-name="tagline &lt;CompoundPathItem&gt;" d="M331.85,193.1533h13.2158v2.0723h-5.32V212.67h-2.5478V195.2256H331.85Z" style="fill: #1c1c1c"/>
      <path id="tagline_CompoundPathItem_7" data-name="tagline &lt;CompoundPathItem&gt;" d="M366.3452,208.33h-8.5127l-1.5674,4.34h-2.6884l7.0556-19.4043h2.94l7.0283,19.4043h-2.6885Zm-4.2568-11.9287-3.5274,9.8564h7.0557Z" style="fill: #1c1c1c"/>
      <path id="tagline_CompoundPathItem_8" data-name="tagline &lt;CompoundPathItem&gt;" d="M389.0815,192.9014a9.1865,9.1865,0,0,1,9.044,5.9082h-3.0527a6.14,6.14,0,0,0-5.9913-3.668c-4.0878,0-7.1406,2.9678-7.1406,7.7559,0,4.76,3.0528,7.7285,7.1406,7.7285a6.1581,6.1581,0,0,0,5.9913-3.6406h3.0527c-1.4561,3.7519-4.8164,5.8525-9.044,5.8525a9.9708,9.9708,0,0,1,0-19.9365Z" style="fill: #1c1c1c"/>
      <path id="tagline_CompoundPathItem_9" data-name="tagline &lt;CompoundPathItem&gt;" d="M411.06,203.7656V212.67h-2.5479V193.1533H411.06v9.044l8.0634-9.044h3.2207l-8.8486,9.7725,8.9326,9.7441h-3.332Z" style="fill: #1c1c1c"/>
      <path id="tagline_CompoundPathItem_10" data-name="tagline &lt;CompoundPathItem&gt;" d="M462.4126,202.9541c0,6.0479-3.9482,9.7158-10.3594,9.7158h-6.0761V193.1533h6.0761C458.4644,193.1533,462.4126,196.9053,462.4126,202.9541Zm-10.3594,7.6152c5.0957,0,7.7559-2.8554,7.7559-7.6152s-2.66-7.7285-7.7559-7.7285h-3.5283v15.3437Z" style="fill: #1c1c1c"/>
      <path id="tagline_CompoundPathItem_11" data-name="tagline &lt;CompoundPathItem&gt;" d="M482.88,195.2256h-7.9522V201.75h7.1123v2.1h-7.1123v6.72H482.88V212.67h-10.5V193.126h10.5Z" style="fill: #1c1c1c"/>
      <path id="tagline_CompoundPathItem_12" data-name="tagline &lt;CompoundPathItem&gt;" d="M499.54,212.8652c-3.92,0-6.6915-2.1836-6.7481-5.4033h2.7158c.169,1.624,1.3164,3.2481,4.0323,3.2481,2.4638,0,3.92-1.4,3.92-3.2481,0-5.2646-10.5557-1.9043-10.5557-9.1562,0-3.22,2.6035-5.4043,6.4678-5.4043,3.7246,0,6.16,2.0439,6.4678,5.0127h-2.8c-.168-1.3164-1.3995-2.8008-3.7793-2.8282-2.1006-.0566-3.753,1.0362-3.753,3.1358,0,5.04,10.5283,1.9043,10.5283,9.1279C506.0356,210.1221,503.7681,212.8652,499.54,212.8652Z" style="fill: #1c1c1c"/>
      <path id="tagline_CompoundPathItem_13" data-name="tagline &lt;CompoundPathItem&gt;" d="M516.395,193.1533h2.5479V212.67H516.395Z" style="fill: #1c1c1c"/>
      <path id="tagline_CompoundPathItem_14" data-name="tagline &lt;CompoundPathItem&gt;" d="M547.7271,198.81h-3.0528a6.226,6.226,0,0,0-5.9355-3.584c-4.1162,0-7.1963,2.9678-7.1963,7.6719,0,4.6757,3.08,7.6445,7.1963,7.6445a6.581,6.581,0,0,0,6.86-6.3281h-7.7842v-2.0723h10.5v1.96a9.4659,9.4659,0,0,1-9.5761,8.7363,9.9553,9.9553,0,0,1,0-19.9082A9.2275,9.2275,0,0,1,547.7271,198.81Z" style="fill: #1c1c1c"/>
      <path id="tagline_CompoundPathItem_15" data-name="tagline &lt;CompoundPathItem&gt;" d="M573.6265,193.126V212.67h-2.5479l-10.248-15.54v15.54h-2.5479V193.126h2.5479l10.248,15.5117V193.126Z" style="fill: #1c1c1c"/>
      <path id="tagline_CompoundPathItem_16" data-name="tagline &lt;CompoundPathItem&gt;" d="M595.0747,195.2256h-7.9521V201.75h7.1123v2.1h-7.1123v6.72h7.9521V212.67h-10.5V193.126h10.5Z" style="fill: #1c1c1c"/>
      <path id="tagline_CompoundPathItem_17" data-name="tagline &lt;CompoundPathItem&gt;" d="M611.8462,193.1533c4.5918,0,6.7754,2.5488,6.7754,5.74a5.5033,5.5033,0,0,1-4.6475,5.6005l4.9,8.1758h-3.0527l-4.6475-7.98h-3.08v7.98h-2.5478V193.1533Zm0,2.1006h-3.752v7.3916h3.752c2.8838,0,4.1435-1.5674,4.1435-3.7519C615.99,196.6816,614.7583,195.2539,611.8462,195.2539Z" style="fill: #1c1c1c"/>
    </g>
    <g id="logoMark">
      <path id="logoMark_PathItem_" data-name="logoMark &lt;PathItem&gt;" d="M130.313,212.3884h22.3047V183.5657A65.54,65.54,0,0,1,130.313,212.3884Z" style="fill: #1c1c1c"/>
      <path id="logoMark_PathItem_2" data-name="logoMark &lt;PathItem&gt;" d="M16.2441,27.0967H40.3105V212.3884H91.8159V94.204a65.3736,65.3736,0,0,1,60.8018,41.3727V4.8281H88.4526A50.539,50.539,0,0,1,56.1089,94.204V4.8281H0v207.56H16.2441Z" style="fill: #1c1c1c"/>
    </g>
  </g>
</svg>
