<svg id="a3c4161e-fc70-4863-be69-c532676b33c2" data-name="Master Logo Artwork" xmlns="http://www.w3.org/2000/svg" viewBox="0 0 684.6 212.87"><defs><style>.ab386d98-05a4-49f7-b01f-8d8b221c4f62{fill:#2f2f2f;}</style></defs><g id="b387ba3a-4840-4dfc-a7a4-4319415a8bac" data-name="type"><path id="af61dafe-6ab8-49f3-8347-e4efb0a15588" data-name="type &lt;CompoundPathItem&gt;" class="ab386d98-05a4-49f7-b01f-8d8b221c4f62" d="M242.07,72.23H212.69V4.1H240.8C255.05,4.1,263,11.52,263,21.67c0,8.3-5,13.47-11.62,15.62,7.71,1.36,13.18,8.49,13.18,16.49C264.52,64.62,256.22,72.23,242.07,72.23Zm-3.22-57.1h-12.5V32.21h12.5c6.44,0,10.15-2.93,10.15-8.49S245.29,15.13,238.85,15.13Zm1,27.62H226.35V61.1h13.77c6.64,0,10.54-3.22,10.54-9S246.46,42.75,239.83,42.75Z"/><path id="f06a65a5-75cc-434c-8121-36608cbaa0ef" data-name="type &lt;CompoundPathItem&gt;" class="ab386d98-05a4-49f7-b01f-8d8b221c4f62" d="M289.11,72.23H275.45V18.16h13.66v8.39a18.77,18.77,0,0,1,16.6-9.17V31.72H302.1c-8.11,0-13,3.13-13,13.57Z"/><path id="be07b49a-1743-47f0-81ec-8b4cd79fe37a" data-name="type &lt;CompoundPathItem&gt;" class="ab386d98-05a4-49f7-b01f-8d8b221c4f62" d="M336.06,17.28c8.69,0,14.64,4.1,17.86,8.59V18.16h13.76V72.23H353.92v-7.9c-3.22,4.68-9.37,8.78-18,8.78-13.66,0-24.6-11.23-24.6-28.11S322.3,17.28,336.06,17.28Zm3.51,12c-7.32,0-14.25,5.47-14.25,15.72s6.93,16.1,14.25,16.1c7.52,0,14.35-5.66,14.35-15.91S347.09,29.28,339.57,29.28Z"/><path id="ed09ef17-637b-4f4b-9f11-0b2bdfa31876" data-name="type &lt;CompoundPathItem&gt;" class="ab386d98-05a4-49f7-b01f-8d8b221c4f62" d="M418.92,42.36c0-8.68-4.78-13.37-12-13.37-7.42,0-12.2,4.69-12.2,13.37V72.23H381.05V18.16h13.67v6.73c3.51-4.59,9.37-7.51,16.3-7.51,12.59,0,21.57,8.19,21.57,23.13V72.23H418.92Z"/><path id="abe65986-44f7-4f8e-bec3-6bc412afee71" data-name="type &lt;CompoundPathItem&gt;" class="ab386d98-05a4-49f7-b01f-8d8b221c4f62" d="M466.85,17.28c7.12,0,13.95,3.32,17.66,8.39V0h13.86V72.23H484.51v-8c-3.22,5-9.27,8.88-17.76,8.88-13.77,0-24.7-11.23-24.7-28.11S453,17.28,466.85,17.28Zm3.41,12C462.94,29.28,456,34.75,456,45s6.93,16.1,14.25,16.1c7.52,0,14.35-5.66,14.35-15.91S477.78,29.28,470.26,29.28Z"/><path id="bd2882c1-043b-43e8-9e60-762e5ded3df0" data-name="type &lt;CompoundPathItem&gt;" class="ab386d98-05a4-49f7-b01f-8d8b221c4f62" d="M535.75,73.11c-15.61,0-27.43-10.93-27.43-27.92s12.21-27.91,27.82-27.91S564,28.11,564,45.19,551.47,73.11,535.75,73.11Zm0-11.91c7.23,0,14.16-5.27,14.16-16s-6.74-16-14-16-13.76,5.17-13.76,16S528.43,61.2,535.75,61.2Z"/><path id="f218b52f-00d6-47c5-88be-567e845429ac" data-name="type &lt;CompoundPathItem&gt;" class="ab386d98-05a4-49f7-b01f-8d8b221c4f62" d="M611.88,42.36c0-8.68-4.78-13.37-12-13.37-7.42,0-12.2,4.69-12.2,13.37V72.23H574V18.16h13.67v6.73c3.51-4.59,9.37-7.51,16.3-7.51,12.59,0,21.57,8.19,21.57,23.13V72.23H611.88Z"/><path id="a1f43e2d-57a5-40f5-9b5f-c021b4986137" data-name="type &lt;CompoundPathItem&gt;" class="ab386d98-05a4-49f7-b01f-8d8b221c4f62" d="M226.35,89.1v57.3h22.46v10.83H212.69V89.1Z"/><path id="be77e73d-d1a2-4d22-9f85-7ef146352dff" data-name="type &lt;CompoundPathItem&gt;" class="ab386d98-05a4-49f7-b01f-8d8b221c4f62" d="M278.67,102.28c8.69,0,14.64,4.1,17.86,8.59v-7.71H310.3v54.07H296.53v-7.9c-3.22,4.68-9.37,8.78-18,8.78C264.91,158.11,254,146.88,254,130S264.91,102.28,278.67,102.28Zm3.52,12c-7.33,0-14.26,5.47-14.26,15.72s6.93,16.1,14.26,16.1c7.51,0,14.34-5.66,14.34-15.91S289.7,114.28,282.19,114.28Z"/><path id="a7fa773a-bcc4-4d0b-a4da-10797b7c79d1" data-name="type &lt;CompoundPathItem&gt;" class="ab386d98-05a4-49f7-b01f-8d8b221c4f62" d="M361.54,127.36c0-8.68-4.79-13.37-12-13.37-7.42,0-12.2,4.69-12.2,13.37v29.87H323.66V103.16h13.67v6.73c3.51-4.59,9.37-7.51,16.3-7.51,12.59,0,21.57,8.19,21.57,23.13v31.72H361.54Z"/><path id="bc847047-b52a-462a-8add-66dd1c0642a1" data-name="type &lt;CompoundPathItem&gt;" class="ab386d98-05a4-49f7-b01f-8d8b221c4f62" d="M409.46,102.28c7.12,0,14,3.32,17.66,8.39V85H441v72.23H427.12v-8c-3.22,5-9.27,8.88-17.76,8.88-13.76,0-24.7-11.23-24.7-28.11S395.6,102.28,409.46,102.28Zm3.41,12c-7.32,0-14.25,5.47-14.25,15.72s6.93,16.1,14.25,16.1c7.52,0,14.35-5.66,14.35-15.91S420.39,114.28,412.87,114.28Z"/><path id="e942a7cb-f537-4e79-a4a9-a833fb07bfb1" data-name="type &lt;CompoundPathItem&gt;" class="ab386d98-05a4-49f7-b01f-8d8b221c4f62" d="M475.53,102.28c8.5,0,14.65,3.9,17.87,8.59v-7.71h13.76v54.46c0,14.64-9,26.26-26.75,26.26-15.22,0-25.86-7.61-27.23-20h13.57c1.37,4.88,6.44,8.1,13.27,8.1,7.52,0,13.38-4.29,13.38-14.35v-8.39a21.34,21.34,0,0,1-17.87,8.88c-13.76,0-24.69-11.23-24.69-28.11S461.77,102.28,475.53,102.28Zm3.52,12c-7.32,0-14.25,5.47-14.25,15.72s6.93,16.1,14.25,16.1c7.51,0,14.35-5.66,14.35-15.91S486.56,114.28,479.05,114.28Z"/><path id="a912b5d1-3b7d-4e74-9151-c49e37e1ed5c" data-name="type &lt;CompoundPathItem&gt;" class="ab386d98-05a4-49f7-b01f-8d8b221c4f62" d="M534.19,157.23H520.53V103.16h13.66v8.39a18.77,18.77,0,0,1,16.6-9.17v14.34h-3.62c-8.1,0-13,3.13-13,13.57Z"/><path id="fcbee742-aaab-401c-9cf6-41553a461028" data-name="type &lt;CompoundPathItem&gt;" class="ab386d98-05a4-49f7-b01f-8d8b221c4f62" d="M581.14,102.28c8.69,0,14.64,4.1,17.86,8.59v-7.71h13.76v54.07H599v-7.9c-3.22,4.68-9.37,8.78-18,8.78-13.66,0-24.6-11.23-24.6-28.11S567.38,102.28,581.14,102.28Zm3.51,12c-7.32,0-14.25,5.47-14.25,15.72s6.93,16.1,14.25,16.1c7.52,0,14.35-5.66,14.35-15.91S592.17,114.28,584.65,114.28Z"/><path id="b2f840e8-d9f4-4535-b5cc-e5d24bb628e5" data-name="type &lt;CompoundPathItem&gt;" class="ab386d98-05a4-49f7-b01f-8d8b221c4f62" d="M627.6,114.38h-6.15V103.16h6.15v-2.74c0-13.27,7.51-19.42,22.74-19V92.91c-6.64-.2-8.88,2-8.88,8v2.25h9.46v11.22h-9.46v42.85H627.6Z"/><path id="a1be7772-d668-414c-ab90-c88e3aff94b2" data-name="type &lt;CompoundPathItem&gt;" class="ab386d98-05a4-49f7-b01f-8d8b221c4f62" d="M661.27,114.38h-6.15V103.16h6.15v-2.74c0-13.27,7.51-19.42,22.74-19V92.91c-6.64-.2-8.88,2-8.88,8v2.25h9.47v11.22h-9.47v42.85H661.27Z"/></g><g id="ab060942-6a99-4570-8b30-f92ce14fcf3d" data-name="tagline"><path id="a575e6f1-4496-4173-a0d7-264f19224c7b" data-name="tagline &lt;CompoundPathItem&gt;" class="ab386d98-05a4-49f7-b01f-8d8b221c4f62" d="M212.29,193.15h11v2.08h-8.48v6.58h6.89v2.07h-6.89v8.79h-2.55Z"/><path id="f6d45d74-db1d-4cba-8fb8-53c9332d34cb" data-name="tagline &lt;CompoundPathItem&gt;" class="ab386d98-05a4-49f7-b01f-8d8b221c4f62" d="M233,193.15h2.54V205.5c0,3.59,1.94,5.13,4.82,5.13s4.79-1.54,4.79-5.13V193.15h2.55v12.32c0,5.07-3.34,7.4-7.37,7.4s-7.33-2.33-7.33-7.4Z"/><path id="bcdeaccd-7932-499b-b3fc-a2fbe572e36c" data-name="tagline &lt;CompoundPathItem&gt;" class="ab386d98-05a4-49f7-b01f-8d8b221c4f62" d="M261.07,193.15V210.6h6.83v2.07h-9.38V193.15Z"/><path id="f37da391-9d70-4845-bc3c-0e41fdd60e6a" data-name="tagline &lt;CompoundPathItem&gt;" class="ab386d98-05a4-49f7-b01f-8d8b221c4f62" d="M279.77,193.15V210.6h6.83v2.07h-9.38V193.15Z"/><path id="bafd4f73-de0d-4892-9cf5-eb02535b1daa" data-name="tagline &lt;CompoundPathItem&gt;" class="ab386d98-05a4-49f7-b01f-8d8b221c4f62" d="M316.2,212.87c-3.92,0-6.69-2.19-6.75-5.41h2.72c.16,1.63,1.31,3.25,4,3.25,2.46,0,3.92-1.4,3.92-3.25,0-5.26-10.56-1.9-10.56-9.15,0-3.22,2.61-5.41,6.47-5.41s6.16,2,6.47,5h-2.8c-.17-1.31-1.4-2.8-3.78-2.82-2.1-.06-3.75,1-3.75,3.13,0,5,10.52,1.91,10.52,9.13C322.69,210.12,320.43,212.87,316.2,212.87Z"/><path id="ef5beb63-48ad-4d37-8f28-e00f822bf32c" data-name="tagline &lt;CompoundPathItem&gt;" class="ab386d98-05a4-49f7-b01f-8d8b221c4f62" d="M331.85,193.15h13.22v2.08h-5.32v17.44H337.2V195.23h-5.35Z"/><path id="b81cee55-93ac-4e21-aecd-25dbf5539b41" data-name="tagline &lt;CompoundPathItem&gt;" class="ab386d98-05a4-49f7-b01f-8d8b221c4f62" d="M366.35,208.33h-8.52l-1.56,4.34h-2.69l7.05-19.4h2.94l7,19.4h-2.69Zm-4.26-11.93-3.53,9.86h7.06Z"/><path id="e61b3627-fcee-494d-a4fb-c2d079ee05a0" data-name="tagline &lt;CompoundPathItem&gt;" class="ab386d98-05a4-49f7-b01f-8d8b221c4f62" d="M389.08,192.9a9.2,9.2,0,0,1,9.05,5.91h-3.06a6.13,6.13,0,0,0-6-3.67c-4.09,0-7.14,3-7.14,7.76s3.05,7.73,7.14,7.73a6.15,6.15,0,0,0,6-3.64h3.06c-1.46,3.75-4.82,5.85-9.05,5.85a10,10,0,0,1,0-19.94Z"/><path id="e6998644-075b-4ae4-b820-c14a9c55b865" data-name="tagline &lt;CompoundPathItem&gt;" class="ab386d98-05a4-49f7-b01f-8d8b221c4f62" d="M411.06,203.77v8.9h-2.55V193.15h2.55v9l8.06-9h3.22l-8.84,9.78,8.93,9.74H419.1Z"/><path id="afd02981-098a-45ba-abaa-a87fc201d8ae" data-name="tagline &lt;CompoundPathItem&gt;" class="ab386d98-05a4-49f7-b01f-8d8b221c4f62" d="M462.41,203c0,6.05-4,9.72-10.36,9.72H446V193.15h6.07C458.46,193.15,462.41,196.91,462.41,203Zm-10.36,7.62c5.1,0,7.76-2.86,7.76-7.62s-2.66-7.72-7.76-7.72h-3.53v15.34Z"/><path id="ac986ff9-673a-452f-ba29-7666c828f508" data-name="tagline &lt;CompoundPathItem&gt;" class="ab386d98-05a4-49f7-b01f-8d8b221c4f62" d="M482.88,195.23h-7.95v6.52H482v2.1h-7.11v6.72h7.95v2.1h-10.5V193.13h10.5Z"/><path id="ad83166f-0c3c-4756-83e3-9b3da1ff5c82" data-name="tagline &lt;CompoundPathItem&gt;" class="ab386d98-05a4-49f7-b01f-8d8b221c4f62" d="M499.54,212.87c-3.92,0-6.69-2.19-6.75-5.41h2.72c.17,1.63,1.31,3.25,4,3.25,2.46,0,3.92-1.4,3.92-3.25,0-5.26-10.56-1.9-10.56-9.15,0-3.22,2.61-5.41,6.47-5.41s6.16,2,6.47,5H503c-.17-1.31-1.4-2.8-3.78-2.82-2.1-.06-3.75,1-3.75,3.13,0,5,10.53,1.91,10.53,9.13C506,210.12,503.77,212.87,499.54,212.87Z"/><path id="bedc6351-5e97-494b-8964-97f2ac79d4ad" data-name="tagline &lt;CompoundPathItem&gt;" class="ab386d98-05a4-49f7-b01f-8d8b221c4f62" d="M516.4,193.15h2.54v19.52H516.4Z"/><path id="a4d6fb31-3405-4dbe-a6e5-b359f99bdae9" data-name="tagline &lt;CompoundPathItem&gt;" class="ab386d98-05a4-49f7-b01f-8d8b221c4f62" d="M547.73,198.81h-3.06a6.21,6.21,0,0,0-5.93-3.58c-4.12,0-7.2,3-7.2,7.67s3.08,7.64,7.2,7.64a6.58,6.58,0,0,0,6.86-6.33h-7.79v-2.07h10.5v2a9.45,9.45,0,0,1-9.57,8.74,10,10,0,0,1,0-19.91A9.24,9.24,0,0,1,547.73,198.81Z"/><path id="e3c39662-f8a5-4a13-b14a-2569260e6270" data-name="tagline &lt;CompoundPathItem&gt;" class="ab386d98-05a4-49f7-b01f-8d8b221c4f62" d="M573.63,193.13v19.54h-2.55l-10.25-15.54v15.54h-2.55V193.13h2.55l10.25,15.51V193.13Z"/><path id="b2d8f381-c061-4e6d-a9c0-4f6334672389" data-name="tagline &lt;CompoundPathItem&gt;" class="ab386d98-05a4-49f7-b01f-8d8b221c4f62" d="M595.07,195.23h-8v6.52h7.11v2.1h-7.11v6.72h8v2.1h-10.5V193.13h10.5Z"/><path id="b178135e-dbd1-4aaa-aa96-53394db175cc" data-name="tagline &lt;CompoundPathItem&gt;" class="ab386d98-05a4-49f7-b01f-8d8b221c4f62" d="M611.85,193.15c4.59,0,6.77,2.55,6.77,5.74a5.49,5.49,0,0,1-4.65,5.6l4.9,8.18h-3l-4.65-8h-3.08v8h-2.54V193.15Zm0,2.1h-3.76v7.4h3.76c2.88,0,4.14-1.57,4.14-3.76S614.76,195.25,611.85,195.25Z"/></g><g id="b1ee06ef-2cb3-444a-b632-d38316d49a24" data-name="logoMark"><path id="ecdd1a94-44fe-4311-834e-d9e56f410938" data-name="logoMark &lt;PathItem&gt;" class="ab386d98-05a4-49f7-b01f-8d8b221c4f62" d="M130.31,212.39h22.31V183.57A65.52,65.52,0,0,1,130.31,212.39Z"/><path id="e20bebfa-e6f4-4d98-8f17-7842ac0c888b" data-name="logoMark &lt;PathItem&gt;" class="ab386d98-05a4-49f7-b01f-8d8b221c4f62" d="M16.24,27.1H40.31V212.39H91.82V94.2a65.38,65.38,0,0,1,60.8,41.38V4.83H88.45A50.53,50.53,0,0,1,56.11,94.2V4.83H0V212.39H16.24Z"/></g></svg>